<svg xmlns="http://www.w3.org/2000/svg" width="20" height="20" viewBox="0 0 20 20">
  <defs>
    <style>
      .cls-1 {
        fill: #27b5ff;
        fill-rule: evenodd;
      }
    </style>
  </defs>
  <path id="从历史复制" class="cls-1" d="M61,121H53a2,2,0,0,1-2-2v-2H47a1,1,0,0,1-1-1V104a1,1,0,0,1,1-1H57a1,1,0,0,1,1,1v3h1l4,4v8A2,2,0,0,1,61,121Zm-6.5-17h-5a0.5,0.5,0,0,0,0,1h5A0.5,0.5,0,0,0,54.5,104Zm6.5,8H59a1,1,0,0,1-1-1v-2H54a1,1,0,0,0-1,1v8a1,1,0,0,0,1,1h6a1,1,0,0,0,1-1v-6Z" transform="translate(-44.5 -102)"/>
</svg>
