<svg xmlns="http://www.w3.org/2000/svg" width="20" height="20" viewBox="0 0 20 20">
  <defs>
    <style>
      .cls-1 {
        fill: #27b5ff;
        fill-rule: evenodd;
      }
    </style>
  </defs>
  <path id="全屏" class="cls-1" d="M228.969,80.279v3.489a0.951,0.951,0,0,1-.951.951h0a0.951,0.951,0,0,1-.951-0.951V82.282l-2.537,2.538a0.974,0.974,0,0,1-1.344-1.344l2.537-2.538h-1.486a0.951,0.951,0,0,1-.951-0.951V79.982a0.951,0.951,0,0,1,.951-0.951h3.489a0.961,0.961,0,0,1,.971.277c0.01,0.01.01,0.023,0.019,0.032a0.924,0.924,0,0,1,.194.327A0.852,0.852,0,0,1,228.969,80.279ZM216.445,93.063h1.636a0.95,0.95,0,0,1,.95.951v0.005a0.95,0.95,0,0,1-.95.951h-3.738a0.953,0.953,0,0,1-.723-0.073,0.941,0.941,0,0,1-.527-0.573,0.813,0.813,0,0,1-.062-0.6V90.279a1,1,0,0,1,1-1h0a1,1,0,0,1,1,1v1.442l2.667-2.541a0.948,0.948,0,0,1,1.271.134,0.844,0.844,0,0,1,.141,1.21Zm1.232-7.971L215,82.414V84a1,1,0,0,1-2,0V80.312a0.9,0.9,0,0,1,.066-0.637,0.984,0.984,0,0,1,.227-0.382h0A1.012,1.012,0,0,1,214.312,79H218a1,1,0,0,1,0,2h-1.586l2.677,2.677A1.025,1.025,0,0,1,217.677,85.091Zm6.857,4.348,2.532,2.412V90.485a0.951,0.951,0,0,1,.951-0.951h0a0.951,0.951,0,0,1,.951.951v3.269a0.775,0.775,0,0,1-.06.575,1.006,1.006,0,0,1-1.186.611H224.2a0.906,0.906,0,1,1,0-1.812h1.526l-2.532-2.412a0.8,0.8,0,0,1,.134-1.15A0.9,0.9,0,0,1,224.534,89.439Z" transform="translate(-210.984 -76.984)"/>
</svg>
