<svg xmlns="http://www.w3.org/2000/svg" width="36" height="36" viewBox="0 0 36 36">
  <metadata><?xpacket begin="﻿" id="W5M0MpCehiHzreSzNTczkc9d"?>
<x:xmpmeta xmlns:x="adobe:ns:meta/" x:xmptk="Adobe XMP Core 5.6-c145 79.163499, 2018/08/13-16:40:22        ">
   <rdf:RDF xmlns:rdf="http://www.w3.org/1999/02/22-rdf-syntax-ns#">
      <rdf:Description rdf:about=""
            xmlns:xmp="http://ns.adobe.com/xap/1.0/">
         <xmp:CreatorTool>Adobe Photoshop CC 2019 (Windows)</xmp:CreatorTool>
      </rdf:Description>
   </rdf:RDF>
</x:xmpmeta>
                                                                                                    
                                                                                                    
                                                                                                    
                                                                                                    
                                                                                                    
                                                                                                    
                                                                                                    
                                                                                                    
                                                                                                    
                                                                                                    
                                                                                                    
                                                                                                    
                                                                                                    
                                                                                                    
                                                                                                    
                                                                                                    
                                                                                                    
                                                                                                    
                                                                                                    
                                                                                                    
                           
<?xpacket end="w"?></metadata>
<defs>
    <style>
      .cls-1 {
        fill: #27b5ff;
        fill-rule: evenodd;
      }
    </style>
  </defs>
  <path id="升压站" class="cls-1" d="M276,319h-1v3a1,1,0,0,1-1,1H246a1,1,0,0,1-1-1v-3h-1a1,1,0,0,1-1-1V308a1,1,0,0,1,1-1h1v-3a1,1,0,0,1,1-1h2v-2h-1a1,1,0,0,1,0-2h1v-2h-1a1,1,0,0,1,0-2h1v-2h2v2h1a1,1,0,0,1,0,2h-1v2h1a1,1,0,0,1,0,2h-1v2h9v-2h-1a1,1,0,0,1,0-2h1v-2h-1a1,1,0,0,1,0-2h1v-2h2v2h1a1,1,0,0,1,0,2h-1v2h1a1,1,0,0,1,0,2h-1v2h9v-2h-1a1,1,0,0,1,0-2h1v-2h-1a1,1,0,0,1,0-2h1v-2h2v2h1a1,1,0,0,1,0,2h-1v2h1a1,1,0,0,1,0,2h-1v2h2a1,1,0,0,1,1,1v3h1a1,1,0,0,1,1,1v10A1,1,0,0,1,276,319Zm-1-10h-2v-4H247v4h-2v8h1a1,1,0,0,1,0,2h1v2h26v-2h1a1,1,0,0,1,0-2h1v-8Zm-16,10v-4.991h-3L261,307v4.991h3Zm-15,6h32a1,1,0,0,1,0,2H244A1,1,0,0,1,244,325Z" transform="translate(-242 -292)"/>
</svg>
