<svg xmlns="http://www.w3.org/2000/svg" width="36" height="36" viewBox="0 0 36 36">
  <defs>
    <style>
      .cls-1 {
        fill: #27b5ff;
        fill-rule: evenodd;
      }
    </style>
  </defs>
  <path id="外送线路" class="cls-1" d="M274,258h-5.024a1.083,1.083,0,0,1-.548.889l-0.239.137,2.793,10.728a1.006,1.006,0,0,1-.689,1.229,0.926,0.926,0,0,1-.569-0.039,1.105,1.105,0,0,1-.542-0.137l-10.732-6.2-10.86,6.227a1.164,1.164,0,0,1-.415.142,0.927,0.927,0,0,1-.468,0,1.006,1.006,0,0,1-.689-1.229l2.789-10.711-0.181-.1A1.079,1.079,0,0,1,248.08,258H242a1,1,0,0,1,0-2h7.6l1.823-7H247a1,1,0,0,1,0-2h4.943l2.069-7.943A0.578,0.578,0,0,1,254,239a0.992,0.992,0,0,1,.548-0.879l0.007,0a0.934,0.934,0,0,1,.173-0.061,0.914,0.914,0,0,1,.3-0.055h6.936a0.914,0.914,0,0,1,.3.055,0.934,0.934,0,0,1,.173.061l0.007,0A0.992,0.992,0,0,1,263,239a0.578,0.578,0,0,1-.012.057L265.057,247H269a1,1,0,0,1,0,2h-3.422l1.823,7H274A1,1,0,0,1,274,258Zm-5.462,10.126-2.107-8.092-5.974,3.426Zm-20.042-.134,7.933-4.548-5.866-3.387ZM261.214,240h-5.428l-1.823,7h9.074Zm2.344,9H253.442l-1.823,7h13.762ZM251.1,258l-0.013.049,7.35,4.244,7.468-4.282,0-.011H251.1Z" transform="translate(-240 -236.5)"/>
</svg>
