<svg xmlns="http://www.w3.org/2000/svg" width="20" height="20" viewBox="0 0 20 20">
  <defs>
    <style>
      .cls-1 {
        fill: #f93;
        fill-rule: evenodd;
      }
    </style>
  </defs>
  <path id="实施" class="cls-1" d="M116,216H104a1,1,0,0,1-1-1V203a1,1,0,0,1,1-1h12a1,1,0,0,1,1,1v12A1,1,0,0,1,116,216Zm-4.812-10.006a2.993,2.993,0,0,0-3.405-.578l1.284,1.285v1.415h-1.415l-1.285-1.284a2.983,2.983,0,0,0,3.984,3.982l2.251,2.251,1.414-1.414-2.251-2.251A2.992,2.992,0,0,0,111.188,205.994Z" transform="translate(-100 -199)"/>
</svg>
