<svg xmlns="http://www.w3.org/2000/svg" width="20" height="20" viewBox="0 0 20 20">
  <defs>
    <style>
      .cls-1 {
        fill: #c6f;
        fill-rule: evenodd;
      }
    </style>
  </defs>
  <path id="年度投资预算" class="cls-1" d="M276,148H262a1,1,0,0,1-1-1V137a1,1,0,0,1,1-1h14a1,1,0,0,1,1,1v10A1,1,0,0,1,276,148Zm-3.5-6a0.5,0.5,0,0,0,0-1h-2l2.182-2.182a0.5,0.5,0,1,0-.707-0.707l-2.475,2.475-2.475-2.475a0.5,0.5,0,1,0-.707.707L268.5,141h-2a0.5,0.5,0,0,0,0,1H269v1h-2.5a0.5,0.5,0,0,0,0,1H269v1.5a0.5,0.5,0,0,0,1,0V144h2.5a0.5,0.5,0,0,0,0-1H270v-1h2.5Zm3-7h-13a0.5,0.5,0,0,1,0-1h13A0.5,0.5,0,0,1,275.5,135Zm-2-2h-9a0.5,0.5,0,0,1,0-1h9A0.5,0.5,0,0,1,273.5,133Z" transform="translate(-259 -130)"/>
</svg>
