<svg xmlns="http://www.w3.org/2000/svg" width="20" height="20" viewBox="0 0 20 20">
  <defs>
    <style>
      .cls-1 {
        fill: #c6f;
        fill-rule: evenodd;
      }
    </style>
  </defs>
  <path id="年度资金预算" class="cls-1" d="M276,172H262a1,1,0,0,1-1-1V161a1,1,0,0,1,1-1h0.66l6.688-3.861a0.581,0.581,0,0,1,1.117.28l1.032,1.788,2.23-1.287a0.5,0.5,0,0,1,.683.183l1.684,2.916A0.99,0.99,0,0,1,277,161v10A1,1,0,0,1,276,172Zm-9.5-5a0.5,0.5,0,0,0,0,1H269v1.5a0.5,0.5,0,0,0,1,0V168h2.5a0.5,0.5,0,0,0,0-1H270v-1h2.5a0.5,0.5,0,0,0,0-1h-2l2.182-2.182a0.5,0.5,0,1,0-.707-0.707l-2.475,2.475-2.475-2.475a0.455,0.455,0,0,0-.168-0.07l-0.424.245a0.487,0.487,0,0,1-.213.061,0.47,0.47,0,0,0,.1.471L268.5,165h-2a0.5,0.5,0,0,0,0,1H269v1h-2.5Zm3.2-9.909L264.66,160h3.732l2.239-1.293Zm4.1,0.945-2.206,1.274c-0.008,0-.013.013-0.021,0.018a0.267,0.267,0,0,1-.026.009l-1.149.663h4.536Z" transform="translate(-259 -153.906)"/>
</svg>
