<svg xmlns="http://www.w3.org/2000/svg" width="20" height="20" viewBox="0 0 20 20">
  <defs>
    <style>
      .cls-1 {
        fill: #0c0;
        fill-rule: evenodd;
      }
    </style>
  </defs>
  <path id="投资预算可用" class="cls-1" d="M297,148H283a1,1,0,0,1-1-1V137a1,1,0,0,1,1-1h14a1,1,0,0,1,1,1v10A1,1,0,0,1,297,148Zm-2.757-8.975a0.5,0.5,0,0,0-.707,0l-4.6,4.6-2.475-2.475a0.5,0.5,0,0,0-.707.708l2.829,2.828a0.5,0.5,0,0,0,.707,0l4.95-4.95A0.5,0.5,0,0,0,294.243,139.025ZM296.5,135h-13a0.5,0.5,0,0,1,0-1h13A0.5,0.5,0,0,1,296.5,135Zm-2-2h-9a0.5,0.5,0,0,1,0-1h9A0.5,0.5,0,0,1,294.5,133Z" transform="translate(-280 -130)"/>
</svg>
