<svg xmlns="http://www.w3.org/2000/svg" width="20" height="20" viewBox="0 0 20 20">
  <defs>
    <style>
      .cls-1 {
        fill: #f93;
        fill-rule: evenodd;
      }
    </style>
  </defs>
  <path id="投资预算已用" class="cls-1" d="M255,148H241a1,1,0,0,1-1-1V137a1,1,0,0,1,1-1h14a1,1,0,0,1,1,1v10A1,1,0,0,1,255,148Zm-3.081-6.806A4,4,0,1,0,252,142,4.035,4.035,0,0,0,251.919,141.194ZM248,145a3,3,0,0,1,0-6v3h3A3,3,0,0,1,248,145Zm6.5-10h-13a0.5,0.5,0,0,1,0-1h13A0.5,0.5,0,0,1,254.5,135Zm-2-2h-9a0.5,0.5,0,0,1,0-1h9A0.5,0.5,0,0,1,252.5,133Z" transform="translate(-238 -130)"/>
</svg>
