<svg xmlns="http://www.w3.org/2000/svg" width="20" height="20" viewBox="0 0 20 20">
  <defs>
    <style>
      .cls-1 {
        fill: #27b5ff;
        fill-rule: evenodd;
      }
    </style>
  </defs>
  <path id="标题前" class="cls-1" d="M146,116h-9a1,1,0,0,1,0-2h9A1,1,0,0,1,146,116Zm0-4h-9a1,1,0,0,1,0-2h9A1,1,0,0,1,146,112Zm0-4h-9a1,1,0,0,1,0-2h9A1,1,0,0,1,146,108Zm-13,12h-1a1,1,0,0,1,0-2h1A1,1,0,0,1,133,120Zm0-4h-1a1,1,0,0,1,0-2h1A1,1,0,0,1,133,116Zm0-4h-1a1,1,0,0,1,0-2h1A1,1,0,0,1,133,112Zm0-4h-1a1,1,0,0,1,0-2h1A1,1,0,0,1,133,108Zm4,10h9a1,1,0,0,1,0,2h-9A1,1,0,0,1,137,118Z" transform="translate(-129 -103)"/>
</svg>
