<svg xmlns="http://www.w3.org/2000/svg" width="20" height="20" viewBox="0 0 20 20">
  <defs>
    <style>
      .cls-1 {
        fill: #27b5ff;
        fill-rule: evenodd;
      }
    </style>
  </defs>
  <path id="用户" class="cls-1" d="M146,93.5c0,0.829-3.134,1.5-7,1.5s-7-.672-7-1.5a0.673,0.673,0,0,1,.407-0.5H132.03a8.707,8.707,0,0,1,3.865-7.109,4.9,4.9,0,0,0,6.21,0A8.707,8.707,0,0,1,145.97,93h-0.377A0.673,0.673,0,0,1,146,93.5ZM139,85a3,3,0,1,1,3-3A3,3,0,0,1,139,85Z" transform="translate(-129 -77)"/>
</svg>
