<svg xmlns="http://www.w3.org/2000/svg" width="20" height="20" viewBox="0 0 20 20">
  <defs>
    <style>
      .cls-1 {
        fill: #c6f;
        fill-rule: evenodd;
      }
    </style>
  </defs>
  <path id="立项" class="cls-1" d="M97,216H85a1,1,0,0,1-1-1V203a1,1,0,0,1,1-1H97a1,1,0,0,1,1,1v12A1,1,0,0,1,97,216Zm-4.867-12a2.725,2.725,0,0,0,0,3.854,3.634,3.634,0,0,0-5.139,0l1.969,1.97-2.714,2.714,0.707,0.707,2.714-2.714,2.463,2.463a3.635,3.635,0,0,0,0-5.14,2.724,2.724,0,0,0,3.855,0Z" transform="translate(-81 -199)"/>
</svg>
