<svg xmlns="http://www.w3.org/2000/svg" width="36" height="36" viewBox="0 0 36 36">
  <defs>
    <style>
      .cls-1 {
        fill: #27b5ff;
        fill-rule: evenodd;
      }
    </style>
  </defs>
  <path id="箱变" class="cls-1" d="M209,302h-2v21a1,1,0,0,1-1,1H178a1,1,0,0,1-1-1V302h-2a1,1,0,0,1-1-1v-3a1.037,1.037,0,0,1,.022-0.111,1.008,1.008,0,0,1,.042-0.2,0.956,0.956,0,0,1,.081-0.171,0.969,0.969,0,0,1,.106-0.158,1.1,1.1,0,0,1,.142-0.13,1.167,1.167,0,0,1,.09-0.082l9.984-5.968a0.979,0.979,0,0,1,.3-0.129,0.907,0.907,0,0,1,.261-0.046h13.936a0.907,0.907,0,0,1,.261.046,0.979,0.979,0,0,1,.3.129l9.984,5.968a1.167,1.167,0,0,1,.09.082,1.1,1.1,0,0,1,.142.13,0.969,0.969,0,0,1,.106.158,0.956,0.956,0,0,1,.081.171,1.008,1.008,0,0,1,.042.2A1.037,1.037,0,0,1,210,298v3A1,1,0,0,1,209,302Zm-30,20h26V302H179v20Zm29-23.445L198.707,293H185.293L176,298.555V300h32v-1.445ZM191,319v-5.99h-4l6-8.01v5.99h4Z" transform="translate(-174 -289.5)"/>
</svg>
