<svg xmlns="http://www.w3.org/2000/svg" width="20" height="20" viewBox="0 0 20 20">
  <defs>
    <style>
      .cls-1 {
        fill: #27b5ff;
        fill-rule: evenodd;
      }
    </style>
  </defs>
  <path id="组织机构第一级" class="cls-1" d="M171.683,113.334l-7.894,3.5a2.223,2.223,0,0,1-1.578,0l-7.894-3.5c-0.436-.193-0.436-0.506,0-0.7l1.461-.648,6.433,2.854a2.223,2.223,0,0,0,1.578,0l6.433-2.854,1.461,0.648C172.118,112.828,172.118,113.141,171.683,113.334Zm0-3.992-7.894,3.5a2.223,2.223,0,0,1-1.578,0l-7.894-3.5c-0.436-.193-0.436-0.507,0-0.7l7.894-3.5a2.212,2.212,0,0,1,1.578,0l7.894,3.5C172.118,108.835,172.118,109.149,171.683,109.342Zm-17.366,7.284,1.461-.647,6.433,2.853a2.223,2.223,0,0,0,1.578,0l6.433-2.853,1.461,0.647c0.435,0.194.435,0.507,0,.7l-7.894,3.5a2.223,2.223,0,0,1-1.578,0l-7.894-3.5C153.881,117.133,153.881,116.82,154.317,116.626Z" transform="translate(-153.016 -103)"/>
</svg>
