<svg xmlns="http://www.w3.org/2000/svg" width="20" height="20" viewBox="0 0 20 20">
  <defs>
    <style>
      .cls-1 {
        fill: #f93;
        fill-rule: evenodd;
      }
    </style>
  </defs>
  <path id="资金预算已用" class="cls-1" d="M255,172H241a1,1,0,0,1-1-1V161a1,1,0,0,1,1-1h0.66l6.688-3.861a0.581,0.581,0,0,1,1.117.28l1.032,1.788,2.23-1.287a0.5,0.5,0,0,1,.683.183l1.684,2.916A0.99,0.99,0,0,1,256,161v10A1,1,0,0,1,255,172Zm-7-2a4,4,0,1,0-4-4A4,4,0,0,0,248,170Zm0.7-12.909L243.66,160h3.732l2.239-1.293Zm4.1,0.945-2.206,1.274c-0.008,0-.013.013-0.021,0.018a0.267,0.267,0,0,1-.026.009l-1.149.663h4.536ZM248,163v3h3A3,3,0,1,1,248,163Z" transform="translate(-238 -153.906)"/>
</svg>
