<svg xmlns="http://www.w3.org/2000/svg" width="20" height="20" viewBox="0 0 20 20">
  <defs>
    <style>
      .cls-1 {
        fill: #0c0;
        fill-rule: evenodd;
      }
    </style>
  </defs>
  <path id="资金预算可用" class="cls-1" d="M297,172H283a1,1,0,0,1-1-1V161a1,1,0,0,1,1-1h0.66l6.688-3.861a0.581,0.581,0,0,1,1.117.28l1.032,1.788,2.23-1.287a0.5,0.5,0,0,1,.683.183l1.684,2.916A0.99,0.99,0,0,1,298,161v10A1,1,0,0,1,297,172Zm-11.243-6.146,2.829,2.828a0.5,0.5,0,0,0,.707,0l4.95-4.95a0.5,0.5,0,0,0-.707-0.707l-4.6,4.6-2.475-2.475A0.5,0.5,0,0,0,285.757,165.854Zm4.941-8.763L285.66,160h3.732l2.239-1.293Zm4.1,0.945-2.206,1.274c-0.008,0-.013.013-0.021,0.018a0.267,0.267,0,0,1-.026.009l-1.149.663h4.536Z" transform="translate(-280 -153.906)"/>
</svg>
