<svg xmlns="http://www.w3.org/2000/svg" width="20" height="20" viewBox="0 0 20 20">
  <defs>
    <style>
      .cls-1 {
        fill: #27b5ff;
        fill-rule: evenodd;
      }
    </style>
  </defs>
  <path id="附件" class="cls-1" d="M115.364,113.707l-2.826,2.826,0.7-.7-1.415-1.414,2.122-2.121a3,3,0,0,0-4.243-4.243l-2.121,2.122-1.414-1.415,2.121-2.121A5,5,0,0,1,115.364,113.707Zm-8.485,1.414a1,1,0,0,1,0-1.414l2.828-2.828a1,1,0,0,1,1.414,1.414l-2.828,2.828A1,1,0,0,1,106.879,115.121Zm1.414,2.829,2.121-2.122,1.414,1.415-2.121,2.121a5,5,0,0,1-7.071-7.071l2.121-2.121,1.414,1.414-2.121,2.121A3,3,0,0,0,108.293,117.95Z" transform="translate(-99.016 -103.016)"/>
</svg>
