<?xml version="1.0" standalone="no"?><!DOCTYPE svg PUBLIC "-//W3C//DTD SVG 1.1//EN" "http://www.w3.org/Graphics/SVG/1.1/DTD/svg11.dtd"><svg t="1650445257849" class="icon" viewBox="0 0 1024 1024" version="1.1" xmlns="http://www.w3.org/2000/svg" p-id="77811" xmlns:xlink="http://www.w3.org/1999/xlink" width="32" height="32"><defs><style type="text/css">@font-face { font-family: feedback-iconfont; src: url("//at.alicdn.com/t/font_1031158_u69w8yhxdu.woff2?t=1630033759944") format("woff2"), url("//at.alicdn.com/t/font_1031158_u69w8yhxdu.woff?t=1630033759944") format("woff"), url("//at.alicdn.com/t/font_1031158_u69w8yhxdu.ttf?t=1630033759944") format("truetype"); }
</style></defs><path d="M816 368c-68.53 0-125.874 47.873-140.426 112h-73.109c-6.85 0-32.202-5.638-70.84-78.183-27.432-51.505-49.678-114.991-63.51-159.18C452.643 193.209 408.619 160 358.566 160H250.53c-13.18-37.284-48.732-64-90.53-64-53.019 0-96 42.981-96 96s42.981 96 96 96c41.798 0 77.35-26.716 90.53-64h108.037c21.923 0 41.402 15.173 48.471 37.756 14.646 46.788 38.348 114.286 68.1 170.147 9.751 18.308 19.589 34.326 29.548 48.097H378.53c-13.18-37.284-48.732-64-90.53-64-53.019 0-96 42.981-96 96s42.981 96 96 96c41.798 0 77.35-26.716 90.53-64h126.155c-9.959 13.771-19.797 29.789-29.548 48.097-29.751 55.86-53.454 123.359-68.1 170.146C399.968 784.827 380.489 800 358.566 800H250.53c-13.18-37.284-48.732-64-90.53-64-53.019 0-96 42.981-96 96s42.981 96 96 96c41.798 0 77.35-26.715 90.53-64h108.036c50.053 0 94.077-33.21 109.549-82.638 13.832-44.188 36.078-107.675 63.509-159.18C570.262 549.638 595.615 544 602.465 544h73.109C690.126 608.127 747.47 656 816 656c79.529 0 144-64.471 144-144s-64.471-144-144-144zM160 224c-17.645 0-32-14.355-32-32s14.355-32 32-32 32 14.355 32 32-14.355 32-32 32z m0 640c-17.645 0-32-14.355-32-32s14.355-32 32-32 32 14.355 32 32-14.355 32-32 32z m128-320c-17.645 0-32-14.355-32-32s14.355-32 32-32 32 14.355 32 32-14.355 32-32 32z m528 48c-44.112 0-80-35.888-80-80s35.888-80 80-80 80 35.888 80 80-35.888 80-80 80z" p-id="77812" fill="#38AEF3"></path></svg>