<?xml version="1.0" standalone="no"?><!DOCTYPE svg PUBLIC "-//W3C//DTD SVG 1.1//EN" "http://www.w3.org/Graphics/SVG/1.1/DTD/svg11.dtd"><svg t="1650447590850" class="icon" viewBox="0 0 1024 1024" version="1.1" xmlns="http://www.w3.org/2000/svg" p-id="78739" width="20" height="20" xmlns:xlink="http://www.w3.org/1999/xlink"><defs><style type="text/css">@font-face { font-family: feedback-iconfont; src: url("//at.alicdn.com/t/font_1031158_u69w8yhxdu.woff2?t=1630033759944") format("woff2"), url("//at.alicdn.com/t/font_1031158_u69w8yhxdu.woff?t=1630033759944") format("woff"), url("//at.alicdn.com/t/font_1031158_u69w8yhxdu.ttf?t=1630033759944") format("truetype"); }
</style></defs><path d="M403.139765 452.969412c26.021647 40.749176 50.447059 78.757647 74.450823 117.037176 2.770824 4.427294 4.397176 10.360471 4.427294 15.600941 0.180706 136.884706 0.150588 273.769412 0.060236 410.654118 0 2.349176-0.843294 4.728471-1.505883 8.011294H403.169882V452.969412zM446.539294 269.101176c52.946824-82.672941 102.640941-172.574118 178.898824-242.597647l7.619764 3.252706c-1.234824 10.420706-0.210824 21.805176-4.126117 31.081412a9390.381176 9390.381176 0 0 1-82.612706 189.921882c-9.577412 21.323294-22.016 41.351529-31.683765 59.211295l-68.065882-40.869648M61.936941 354.575059c9.396706-4.035765 17.167059-9.426824 25.660235-10.721883 51.139765-7.800471 102.279529-16.865882 153.780706-21.082352 41.562353-3.463529 83.696941-0.752941 123.090824-0.752942v72.884706c-79.510588 10.179765-273.799529-13.944471-302.531765-40.327529M630.377412 688.609882c-12.528941-10.782118-23.883294-17.558588-31.171765-27.407058a9115.407059 9115.407059 0 0 1-118.784-163.026824c-13.131294-18.432-23.973647-38.460235-33.671529-54.151529l67.343058-39.484236c47.104 62.945882 122.217412 239.134118 116.284236 284.069647M791.235765 1004.574118h-51.440941l0.030117-20.329412c0.030118-71.258353-0.301176-142.456471 0.542118-213.624471 0.120471-10.330353 4.126118-21.534118 9.276235-30.72 12.107294-21.383529 25.991529-41.773176 41.592471-66.469647v331.14353zM653.839059 419.659294c46.682353 37.647059 74.872471 88.847059 106.435765 137.155765l-40.508236 23.250823c-26.352941-50.718118-55.928471-101.014588-65.927529-160.406588M653.929412 807.755294c9.125647-59.181176 39.815529-108.935529 65.596235-160.948706l40.357647 24.154353c-30.840471 47.856941-58.639059 99.388235-105.953882 136.794353M819.094588 590.004706c57.795765 4.638118 116.073412 1.054118 171.369412 23.853176-55.657412 22.588235-114.326588 19.516235-171.369412 23.883294V590.004706zM442.322824 396.498824a40.146824 40.146824 0 0 1-40.508236-39.574589 39.815529 39.815529 0 0 1 40.267294-39.664941c21.022118 0.090353 39.243294 17.799529 39.664942 38.490353a40.478118 40.478118 0 0 1-39.454118 40.749177" p-id="78740" fill="#38AEF3"></path><path d="M792.621176 613.827765c0 14.004706-11.745882 26.142118-25.690352 26.533647-14.245647 0.391529-27.196235-12.860235-26.804706-27.346824a26.624 26.624 0 0 1 26.74447-25.268706 26.081882 26.081882 0 0 1 25.750588 26.081883" p-id="78741" fill="#38AEF3"></path></svg>