<svg xmlns="http://www.w3.org/2000/svg" width="40" height="40" viewBox="0 0 40 40">
  <defs>
    <style>
      .cls-1 {
        fill: #27b5ff;
        fill-rule: evenodd;
      }
    </style>
  </defs>
  <path id="风机" class="cls-1" d="M210.027,269.956a3,3,0,0,1-4.1,1.1l-12.624-6.134a2.169,2.169,0,0,1-.894-1.147,4.946,4.946,0,0,0,1.7-.89,0.482,0.482,0,0,0,.191.305l12.624,6.134a1,1,0,0,0,1-1.732l-11.624-7.866a0.5,0.5,0,0,0-.377-0.009,4.127,4.127,0,0,0-.091-1.919,2.183,2.183,0,0,1,1.468.2l11.624,7.866A3,3,0,0,1,210.027,269.956ZM192.8,254.348A0.507,0.507,0,0,0,193,254l-1-14a1,1,0,0,0-2,0l-1,14a0.507,0.507,0,0,0,.2.348,5,5,0,0,0-1.626,1.029A2.19,2.19,0,0,1,187,254l1-14a3,3,0,0,1,6,0l1,14a2.19,2.19,0,0,1-.571,1.377A5,5,0,0,0,192.8,254.348ZM188,259a3,3,0,1,1,3,3A3,3,0,0,1,188,259Zm-1.928.715a0.5,0.5,0,0,0-.377.009l-11.624,7.866a1,1,0,1,0,1,1.732l12.624-6.134a0.482,0.482,0,0,0,.191-0.305,4.946,4.946,0,0,0,1.7.89,2.169,2.169,0,0,1-.894,1.147l-12.624,6.134a3,3,0,0,1-3-5.2l11.624-7.866a2.183,2.183,0,0,1,1.468-.2A4.127,4.127,0,0,0,186.072,259.715Z" transform="translate(-171 -234.234)"/>
</svg>
